<svg xmlns="http://www.w3.org/2000/svg" viewBox="0 0 1080 1080" width="1080" height="1080"><rect width="1080" height="1080" fill="#0E1117"/>
<g opacity="0.18"><line x1="60" y1="0" x2="60" y2="1080" stroke="#2A3140" stroke-width="1"/><line x1="120" y1="0" x2="120" y2="1080" stroke="#2A3140" stroke-width="1"/><line x1="180" y1="0" x2="180" y2="1080" stroke="#2A3140" stroke-width="1"/><line x1="240" y1="0" x2="240" y2="1080" stroke="#2A3140" stroke-width="1"/><line x1="300" y1="0" x2="300" y2="1080" stroke="#2A3140" stroke-width="1"/><line x1="360" y1="0" x2="360" y2="1080" stroke="#2A3140" stroke-width="1"/><line x1="420" y1="0" x2="420" y2="1080" stroke="#2A3140" stroke-width="1"/><line x1="480" y1="0" x2="480" y2="1080" stroke="#2A3140" stroke-width="1"/><line x1="540" y1="0" x2="540" y2="1080" stroke="#2A3140" stroke-width="1"/><line x1="600" y1="0" x2="600" y2="1080" stroke="#2A3140" stroke-width="1"/><line x1="660" y1="0" x2="660" y2="1080" stroke="#2A3140" stroke-width="1"/><line x1="720" y1="0" x2="720" y2="1080" stroke="#2A3140" stroke-width="1"/><line x1="780" y1="0" x2="780" y2="1080" stroke="#2A3140" stroke-width="1"/><line x1="840" y1="0" x2="840" y2="1080" stroke="#2A3140" stroke-width="1"/><line x1="900" y1="0" x2="900" y2="1080" stroke="#2A3140" stroke-width="1"/><line x1="960" y1="0" x2="960" y2="1080" stroke="#2A3140" stroke-width="1"/><line x1="1020" y1="0" x2="1020" y2="1080" stroke="#2A3140" stroke-width="1"/><line x1="0" y1="60" x2="1080" y2="60" stroke="#2A3140" stroke-width="1"/><line x1="0" y1="120" x2="1080" y2="120" stroke="#2A3140" stroke-width="1"/><line x1="0" y1="180" x2="1080" y2="180" stroke="#2A3140" stroke-width="1"/><line x1="0" y1="240" x2="1080" y2="240" stroke="#2A3140" stroke-width="1"/><line x1="0" y1="300" x2="1080" y2="300" stroke="#2A3140" stroke-width="1"/><line x1="0" y1="360" x2="1080" y2="360" stroke="#2A3140" stroke-width="1"/><line x1="0" y1="420" x2="1080" y2="420" stroke="#2A3140" stroke-width="1"/><line x1="0" y1="480" x2="1080" y2="480" stroke="#2A3140" stroke-width="1"/><line x1="0" y1="540" x2="1080" y2="540" stroke="#2A3140" stroke-width="1"/><line x1="0" y1="600" x2="1080" y2="600" stroke="#2A3140" stroke-width="1"/><line x1="0" y1="660" x2="1080" y2="660" stroke="#2A3140" stroke-width="1"/><line x1="0" y1="720" x2="1080" y2="720" stroke="#2A3140" stroke-width="1"/><line x1="0" y1="780" x2="1080" y2="780" stroke="#2A3140" stroke-width="1"/><line x1="0" y1="840" x2="1080" y2="840" stroke="#2A3140" stroke-width="1"/><line x1="0" y1="900" x2="1080" y2="900" stroke="#2A3140" stroke-width="1"/><line x1="0" y1="960" x2="1080" y2="960" stroke="#2A3140" stroke-width="1"/><line x1="0" y1="1020" x2="1080" y2="1020" stroke="#2A3140" stroke-width="1"/></g>
<g><path d="M 480.53125 364.8375 L 512.96875 364.8375 L 540 440.525 L 567.03125 364.8375 L 599.46875 364.8375 L 550.8125 483.775 L 529.1875 483.775 Z" fill="#E11D2E"/><path d="M 518.375 364.8375 L 526.484375 364.8375 L 540 402.68125 L 553.515625 364.8375 L 561.625 364.8375 L 545.40625 413.49375 L 534.59375 413.49375 Z" fill="#FFFFFF" fill-opacity="0.18"/></g>
<text x="540" y="643.8" font-family="Inter, Helvetica, Arial, sans-serif" font-weight="900" font-size="92" letter-spacing="8" fill="#F5F6F8" text-anchor="middle">VICIOUS</text>
<text x="540" y="721.65" font-family="Inter, Helvetica, Arial, sans-serif" font-weight="500" font-size="14" letter-spacing="3" fill="#5B6573" text-anchor="middle">RUN YOUR ROSTER LIKE A PRO</text>
<text x="540" y="816.8" font-family="Inter, Helvetica, Arial, sans-serif" font-weight="700" font-size="22" fill="#F5F6F8" text-anchor="middle">vicious.gg</text></svg>