<svg xmlns="http://www.w3.org/2000/svg" viewBox="0 0 1920 1080" width="1920" height="1080"><rect width="1920" height="1080" fill="#0E1117"/>
<g opacity="0.18"><line x1="60" y1="0" x2="60" y2="1080" stroke="#2A3140" stroke-width="1"/><line x1="120" y1="0" x2="120" y2="1080" stroke="#2A3140" stroke-width="1"/><line x1="180" y1="0" x2="180" y2="1080" stroke="#2A3140" stroke-width="1"/><line x1="240" y1="0" x2="240" y2="1080" stroke="#2A3140" stroke-width="1"/><line x1="300" y1="0" x2="300" y2="1080" stroke="#2A3140" stroke-width="1"/><line x1="360" y1="0" x2="360" y2="1080" stroke="#2A3140" stroke-width="1"/><line x1="420" y1="0" x2="420" y2="1080" stroke="#2A3140" stroke-width="1"/><line x1="480" y1="0" x2="480" y2="1080" stroke="#2A3140" stroke-width="1"/><line x1="540" y1="0" x2="540" y2="1080" stroke="#2A3140" stroke-width="1"/><line x1="600" y1="0" x2="600" y2="1080" stroke="#2A3140" stroke-width="1"/><line x1="660" y1="0" x2="660" y2="1080" stroke="#2A3140" stroke-width="1"/><line x1="720" y1="0" x2="720" y2="1080" stroke="#2A3140" stroke-width="1"/><line x1="780" y1="0" x2="780" y2="1080" stroke="#2A3140" stroke-width="1"/><line x1="840" y1="0" x2="840" y2="1080" stroke="#2A3140" stroke-width="1"/><line x1="900" y1="0" x2="900" y2="1080" stroke="#2A3140" stroke-width="1"/><line x1="960" y1="0" x2="960" y2="1080" stroke="#2A3140" stroke-width="1"/><line x1="1020" y1="0" x2="1020" y2="1080" stroke="#2A3140" stroke-width="1"/><line x1="1080" y1="0" x2="1080" y2="1080" stroke="#2A3140" stroke-width="1"/><line x1="1140" y1="0" x2="1140" y2="1080" stroke="#2A3140" stroke-width="1"/><line x1="1200" y1="0" x2="1200" y2="1080" stroke="#2A3140" stroke-width="1"/><line x1="1260" y1="0" x2="1260" y2="1080" stroke="#2A3140" stroke-width="1"/><line x1="1320" y1="0" x2="1320" y2="1080" stroke="#2A3140" stroke-width="1"/><line x1="1380" y1="0" x2="1380" y2="1080" stroke="#2A3140" stroke-width="1"/><line x1="1440" y1="0" x2="1440" y2="1080" stroke="#2A3140" stroke-width="1"/><line x1="1500" y1="0" x2="1500" y2="1080" stroke="#2A3140" stroke-width="1"/><line x1="1560" y1="0" x2="1560" y2="1080" stroke="#2A3140" stroke-width="1"/><line x1="1620" y1="0" x2="1620" y2="1080" stroke="#2A3140" stroke-width="1"/><line x1="1680" y1="0" x2="1680" y2="1080" stroke="#2A3140" stroke-width="1"/><line x1="1740" y1="0" x2="1740" y2="1080" stroke="#2A3140" stroke-width="1"/><line x1="1800" y1="0" x2="1800" y2="1080" stroke="#2A3140" stroke-width="1"/><line x1="1860" y1="0" x2="1860" y2="1080" stroke="#2A3140" stroke-width="1"/><line x1="0" y1="60" x2="1920" y2="60" stroke="#2A3140" stroke-width="1"/><line x1="0" y1="120" x2="1920" y2="120" stroke="#2A3140" stroke-width="1"/><line x1="0" y1="180" x2="1920" y2="180" stroke="#2A3140" stroke-width="1"/><line x1="0" y1="240" x2="1920" y2="240" stroke="#2A3140" stroke-width="1"/><line x1="0" y1="300" x2="1920" y2="300" stroke="#2A3140" stroke-width="1"/><line x1="0" y1="360" x2="1920" y2="360" stroke="#2A3140" stroke-width="1"/><line x1="0" y1="420" x2="1920" y2="420" stroke="#2A3140" stroke-width="1"/><line x1="0" y1="480" x2="1920" y2="480" stroke="#2A3140" stroke-width="1"/><line x1="0" y1="540" x2="1920" y2="540" stroke="#2A3140" stroke-width="1"/><line x1="0" y1="600" x2="1920" y2="600" stroke="#2A3140" stroke-width="1"/><line x1="0" y1="660" x2="1920" y2="660" stroke="#2A3140" stroke-width="1"/><line x1="0" y1="720" x2="1920" y2="720" stroke="#2A3140" stroke-width="1"/><line x1="0" y1="780" x2="1920" y2="780" stroke="#2A3140" stroke-width="1"/><line x1="0" y1="840" x2="1920" y2="840" stroke="#2A3140" stroke-width="1"/><line x1="0" y1="900" x2="1920" y2="900" stroke="#2A3140" stroke-width="1"/><line x1="0" y1="960" x2="1920" y2="960" stroke="#2A3140" stroke-width="1"/><line x1="0" y1="1020" x2="1920" y2="1020" stroke="#2A3140" stroke-width="1"/></g>
<g><path d="M 900.53125 364.8375 L 932.96875 364.8375 L 960 440.525 L 987.03125 364.8375 L 1019.46875 364.8375 L 970.8125 483.775 L 949.1875 483.775 Z" fill="#E11D2E"/><path d="M 938.375 364.8375 L 946.484375 364.8375 L 960 402.68125 L 973.515625 364.8375 L 981.625 364.8375 L 965.40625 413.49375 L 954.59375 413.49375 Z" fill="#FFFFFF" fill-opacity="0.18"/></g>
<text x="960" y="643.8" font-family="Inter, Helvetica, Arial, sans-serif" font-weight="900" font-size="92" letter-spacing="8" fill="#F5F6F8" text-anchor="middle">VICIOUS</text>
<text x="960" y="721.65" font-family="Inter, Helvetica, Arial, sans-serif" font-weight="500" font-size="14" letter-spacing="3" fill="#5B6573" text-anchor="middle">RUN YOUR ROSTER LIKE A PRO</text>
<text x="960" y="816.8" font-family="Inter, Helvetica, Arial, sans-serif" font-weight="700" font-size="22" fill="#F5F6F8" text-anchor="middle">vicious.gg</text></svg>