<svg xmlns="http://www.w3.org/2000/svg" viewBox="0 0 1920 1080" width="1920" height="1080"><rect width="1920" height="1080" fill="#0E1117"/>
<text x="80" y="70" font-family="Inter, Helvetica, Arial, sans-serif" font-weight="500" font-size="14" letter-spacing="3" fill="#E11D2E" text-anchor="start">HOW IT WORKS  ·  04</text>
<text x="80" y="124" font-family="Inter, Helvetica, Arial, sans-serif" font-weight="900" font-size="56" letter-spacing="4" fill="#F5F6F8" text-anchor="start">DRAFT. STATS. EDGE.</text>
<rect x="80" y="170" width="1760" height="850" rx="12" fill="#1A1F2A" stroke="#2A3140" stroke-width="1"/>
<text x="104" y="206" font-family="Inter, Helvetica, Arial, sans-serif" font-weight="500" font-size="13" letter-spacing="3" fill="#E11D2E" text-anchor="start">US</text>
<rect x="104" y="226" width="844" height="30" rx="6" fill="#222836" stroke="#2A3140" stroke-width="1"/>
<rect x="112" y="231" width="20" height="20" rx="4" fill="#3A4150"/>
<text x="142" y="246" font-family="Inter, Helvetica, Arial, sans-serif" font-weight="600" font-size="13" fill="#F5F6F8" text-anchor="start">Jett</text>
<rect x="104" y="264" width="844" height="30" rx="6" fill="#222836" stroke="#2A3140" stroke-width="1"/>
<rect x="112" y="269" width="20" height="20" rx="4" fill="#3A4150"/>
<text x="142" y="284" font-family="Inter, Helvetica, Arial, sans-serif" font-weight="600" font-size="13" fill="#F5F6F8" text-anchor="start">Sova</text>
<rect x="104" y="302" width="844" height="30" rx="6" fill="#222836" stroke="#2A3140" stroke-width="1"/>
<rect x="112" y="307" width="20" height="20" rx="4" fill="#3A4150"/>
<text x="142" y="322" font-family="Inter, Helvetica, Arial, sans-serif" font-weight="600" font-size="13" fill="#F5F6F8" text-anchor="start">KAY/O</text>
<rect x="104" y="340" width="844" height="30" rx="6" fill="#222836" stroke="#2A3140" stroke-width="1"/>
<rect x="112" y="345" width="20" height="20" rx="4" fill="#3A4150"/>
<text x="142" y="360" font-family="Inter, Helvetica, Arial, sans-serif" font-weight="600" font-size="13" fill="#F5F6F8" text-anchor="start">Killjoy</text>
<rect x="104" y="378" width="844" height="30" rx="6" fill="#222836" stroke="#2A3140" stroke-width="1"/>
<rect x="112" y="383" width="20" height="20" rx="4" fill="#3A4150"/>
<text x="142" y="398" font-family="Inter, Helvetica, Arial, sans-serif" font-weight="600" font-size="13" fill="#F5F6F8" text-anchor="start">Omen</text>
<text x="972" y="206" font-family="Inter, Helvetica, Arial, sans-serif" font-weight="500" font-size="13" letter-spacing="3" fill="#5B6573" text-anchor="start">OPP</text>
<rect x="972" y="226" width="844" height="30" rx="6" fill="#222836" stroke="#2A3140" stroke-width="1"/>
<rect x="980" y="231" width="20" height="20" rx="4" fill="#3A4150"/>
<text x="1010" y="246" font-family="Inter, Helvetica, Arial, sans-serif" font-weight="600" font-size="13" fill="#F5F6F8" text-anchor="start">Raze</text>
<rect x="972" y="264" width="844" height="30" rx="6" fill="#222836" stroke="#2A3140" stroke-width="1"/>
<rect x="980" y="269" width="20" height="20" rx="4" fill="#3A4150"/>
<text x="1010" y="284" font-family="Inter, Helvetica, Arial, sans-serif" font-weight="600" font-size="13" fill="#F5F6F8" text-anchor="start">Skye</text>
<rect x="972" y="302" width="844" height="30" rx="6" fill="#222836" stroke="#2A3140" stroke-width="1"/>
<rect x="980" y="307" width="20" height="20" rx="4" fill="#3A4150"/>
<text x="1010" y="322" font-family="Inter, Helvetica, Arial, sans-serif" font-weight="600" font-size="13" fill="#F5F6F8" text-anchor="start">Breach</text>
<rect x="972" y="340" width="844" height="30" rx="6" fill="#222836" stroke="#2A3140" stroke-width="1"/>
<rect x="980" y="345" width="20" height="20" rx="4" fill="#3A4150"/>
<text x="1010" y="360" font-family="Inter, Helvetica, Arial, sans-serif" font-weight="600" font-size="13" fill="#F5F6F8" text-anchor="start">Cypher</text>
<rect x="972" y="378" width="844" height="30" rx="6" fill="#222836" stroke="#2A3140" stroke-width="1"/>
<rect x="980" y="383" width="20" height="20" rx="4" fill="#3A4150"/>
<text x="1010" y="398" font-family="Inter, Helvetica, Arial, sans-serif" font-weight="600" font-size="13" fill="#F5F6F8" text-anchor="start">Brim</text>
<text x="104" y="450" font-family="Inter, Helvetica, Arial, sans-serif" font-weight="600" font-size="12" fill="#5B6573" text-anchor="start">First-blood rate</text>
<rect x="304" y="436" width="818.9599999999999" height="12" rx="3" fill="#E11D2E"/>
<rect x="304" y="452" width="578.92" height="12" rx="3" fill="#5B6573"/>
<text x="1804" y="450" font-family="Inter, Helvetica, Arial, sans-serif" font-weight="700" font-size="12" fill="#F5F6F8" text-anchor="end">58% / 41%</text>
<text x="104" y="486" font-family="Inter, Helvetica, Arial, sans-serif" font-weight="600" font-size="12" fill="#5B6573" text-anchor="start">Plant rate</text>
<rect x="304" y="472" width="1016.64" height="12" rx="3" fill="#E11D2E"/>
<rect x="304" y="488" width="903.6800000000001" height="12" rx="3" fill="#5B6573"/>
<text x="1804" y="486" font-family="Inter, Helvetica, Arial, sans-serif" font-weight="700" font-size="12" fill="#F5F6F8" text-anchor="end">72% / 64%</text>
<text x="104" y="522" font-family="Inter, Helvetica, Arial, sans-serif" font-weight="600" font-size="12" fill="#5B6573" text-anchor="start">Retake win</text>
<rect x="304" y="508" width="720.12" height="12" rx="3" fill="#E11D2E"/>
<rect x="304" y="524" width="663.64" height="12" rx="3" fill="#5B6573"/>
<text x="1804" y="522" font-family="Inter, Helvetica, Arial, sans-serif" font-weight="700" font-size="12" fill="#F5F6F8" text-anchor="end">51% / 47%</text>
<rect x="104" y="560" width="1712" height="56" rx="8" fill="#222836" stroke="#E11D2E" stroke-width="2"/>
<text x="120" y="582" font-family="Inter, Helvetica, Arial, sans-serif" font-weight="500" font-size="11" letter-spacing="3" fill="#5B6573" text-anchor="start">PROJECTED WIN PROBABILITY</text>
<text x="1800" y="598" font-family="Inter, Helvetica, Arial, sans-serif" font-weight="800" font-size="28" fill="#E11D2E" text-anchor="end">64%</text>
<text x="1892" y="1052" font-family="Inter, Helvetica, Arial, sans-serif" font-weight="500" font-size="11" fill="#5B6573" text-anchor="end">VICIOUS  ·  vicious.gg</text></svg>